<svg width="762" height="213" viewBox="0 0 762 213" fill="none" xmlns="http://www.w3.org/2000/svg">
<g clip-path="url(#clip0_30001_64)">
<path d="M316.812 12.375C317.536 12.5405 317.744 12.7413 318.172 13.3608C318.832 14.4597 319.395 15.6103 319.965 16.7578C320.078 16.9827 320.191 17.2075 320.304 17.4324C320.41 17.6443 320.516 17.8563 320.625 18.0747C320.721 18.2674 320.817 18.4602 320.916 18.6587C321.125 19.125 321.125 19.125 321.125 19.5C321.271 19.5095 321.418 19.5189 321.568 19.5287C323.096 19.6357 324.603 19.8103 326.117 20.0391C326.334 20.0693 326.551 20.0995 326.774 20.1306C327.085 20.1774 327.085 20.1774 327.402 20.2251C327.588 20.2524 327.773 20.2797 327.965 20.3078C328.495 20.4533 328.703 20.5369 329 21C329.105 21.5265 329.105 21.5265 329 22.125C328.638 22.5554 328.303 22.8961 327.886 23.2632C327.654 23.4798 327.423 23.6966 327.191 23.9136C326.825 24.2506 326.457 24.5854 326.086 24.9166C324.628 26.1358 324.628 26.1358 323.808 27.7738C323.851 28.3603 323.965 28.8719 324.125 29.4375C324.189 29.8093 324.249 30.1817 324.307 30.5544C324.409 31.1072 324.513 31.6594 324.617 32.2115C324.794 33.1748 324.954 34.0827 324.875 35.0625C324.523 35.4727 324.523 35.4727 323.937 35.625C322.206 35.154 320.604 34.1163 319.048 33.2509C318.849 33.1437 318.65 33.0365 318.444 32.926C318.266 32.8277 318.087 32.7294 317.903 32.6281C317.03 32.3132 316.461 32.53 315.635 32.9015C315.418 33.0171 315.201 33.1328 314.977 33.252C314.86 33.3137 314.742 33.3754 314.621 33.439C314.249 33.6349 313.878 33.8329 313.508 34.0312C313.135 34.2293 312.763 34.4269 312.39 34.6235C312.052 34.8017 311.716 34.9813 311.379 35.161C310.54 35.5706 310.54 35.5706 310.062 35.625C309.547 35.3555 309.547 35.3555 309.125 35.0625C309.193 33.2837 309.477 31.5686 309.805 29.8216C309.838 29.6429 309.871 29.4642 309.905 29.28C309.935 29.1208 309.965 28.9615 309.997 28.7974C310.018 28.6374 310.04 28.4774 310.062 28.3125C310.088 28.1312 310.115 27.9499 310.141 27.7631C310.028 26.936 309.544 26.5492 308.955 26.0098C308.843 25.9017 308.73 25.7936 308.614 25.6822C308.256 25.3374 307.894 24.9964 307.531 24.6562C307.053 24.2083 306.579 23.7568 306.107 23.3027C305.997 23.2013 305.886 23.0999 305.772 22.9955C305.273 22.5146 305.016 22.2157 304.896 21.524C305 21 305 21 305.196 20.6647C305.74 20.3277 306.308 20.2625 306.931 20.1775C307.065 20.1575 307.199 20.1375 307.337 20.1168C307.62 20.075 307.903 20.0342 308.187 19.9945C308.618 19.934 309.048 19.8702 309.479 19.8058C309.755 19.7654 310.03 19.7253 310.306 19.6853C310.434 19.6666 310.562 19.6478 310.693 19.6285C311.426 19.5266 312.135 19.4819 312.875 19.5C312.925 19.3398 312.975 19.1796 313.026 19.0145C313.381 17.9994 313.87 17.0498 314.348 16.0883C314.527 15.7273 314.702 15.3648 314.878 15.0022C314.992 14.7704 315.107 14.5387 315.222 14.3071C315.325 14.0983 315.428 13.8894 315.533 13.6742C315.894 13.0937 316.257 12.7659 316.812 12.375Z" fill="#FFAF34"/>
<path d="M312.875 19.5C313.296 19.8844 313.617 20.2286 313.965 20.6718C314.061 20.7902 314.157 20.9085 314.256 21.0304C314.453 21.2742 314.648 21.5193 314.841 21.7657C315.107 22.1019 315.378 22.4317 315.652 22.7607C315.807 22.9531 315.962 23.1455 316.121 23.3437C316.259 23.5158 316.398 23.6879 316.541 23.8652C316.812 24.375 316.812 24.375 316.816 24.9258C316.582 25.6294 316.211 26.1445 315.758 26.7187C314.846 27.9154 313.987 29.1402 313.144 30.3867C312.905 30.739 312.665 31.0913 312.425 31.4436C312.1 31.9211 311.776 32.3988 311.454 32.8781C311.199 33.2563 310.942 33.6323 310.683 34.0078C310.611 34.117 310.539 34.2263 310.464 34.3389C310.259 34.6333 310.259 34.6333 309.875 35.0625C309.627 35.0625 309.38 35.0625 309.125 35.0625C309.193 33.2836 309.477 31.5685 309.805 29.8216C309.838 29.6429 309.871 29.4641 309.905 29.28C309.935 29.1207 309.965 28.9615 309.997 28.7974C310.018 28.6374 310.04 28.4773 310.062 28.3125C310.088 28.1312 310.115 27.9499 310.141 27.7631C310.028 26.936 309.544 26.5492 308.955 26.0097C308.843 25.9016 308.73 25.7935 308.614 25.6821C308.256 25.3373 307.894 24.9964 307.531 24.6562C307.053 24.2083 306.579 23.7568 306.107 23.3027C305.997 23.2013 305.886 23.0999 305.772 22.9954C305.273 22.5146 305.016 22.2156 304.896 21.524C305 21 305 21 305.196 20.6647C305.74 20.3277 306.308 20.2625 306.931 20.1775C307.065 20.1574 307.199 20.1374 307.337 20.1168C307.62 20.0749 307.903 20.0342 308.187 19.9945C308.618 19.934 309.048 19.8702 309.479 19.8058C309.755 19.7654 310.03 19.7252 310.306 19.6853C310.434 19.6665 310.562 19.6478 310.693 19.6285C311.426 19.5267 312.137 19.438 312.875 19.5Z" fill="#FFAA22"/>
<path d="M317 24.9375C317.606 25.5206 318.126 26.097 318.6 26.7913C318.72 26.9656 318.84 27.14 318.963 27.3196C319.089 27.5042 319.215 27.6887 319.344 27.8789C319.611 28.267 319.878 28.655 320.145 29.0427C320.278 29.2355 320.411 29.4283 320.548 29.6269C321.205 30.5723 321.882 31.5037 322.562 32.4329C323.234 33.3551 323.873 34.2962 324.5 35.25C324.184 35.4605 324.184 35.4605 323.75 35.625C323.305 35.4991 323.305 35.4991 322.813 35.2566C322.541 35.1251 322.541 35.1251 322.265 34.991C322.074 34.8947 321.884 34.7984 321.688 34.6992C321.494 34.6039 321.301 34.5086 321.101 34.4104C317.613 32.6753 317.613 32.6753 317 32.0625C316.984 31.5353 316.979 31.0128 316.982 30.4856C316.982 30.3277 316.982 30.1698 316.983 30.0072C316.984 29.5009 316.986 28.9946 316.989 28.4883C316.989 28.1459 316.99 27.8035 316.991 27.4611C316.993 26.6199 316.996 25.7787 317 24.9375Z" fill="#FFAA15"/>
<path d="M329 21.1875C329.067 21.5809 329.067 21.5809 329 22.125C328.657 22.5658 328.326 22.9397 327.932 23.3306C327.822 23.4421 327.713 23.5535 327.6 23.6684C327.367 23.9031 327.134 24.1366 326.899 24.369C326.54 24.7254 326.188 25.0874 325.836 25.4502C325.609 25.6776 325.382 25.9047 325.155 26.1313C325.05 26.2401 324.945 26.3489 324.837 26.4609C324.347 26.9361 324.077 27.1871 323.38 27.1891C322.752 26.98 322.131 26.7683 321.513 26.5305C321.394 26.485 321.275 26.4395 321.152 26.3926C320.776 26.2484 320.4 26.1027 320.023 25.957C319.767 25.8584 319.51 25.7599 319.253 25.6615C318.627 25.4213 318.001 25.1797 317.375 24.9375C317.375 24.8137 317.375 24.69 317.375 24.5625C319.557 23.8053 321.764 23.1506 323.984 22.5129C324.566 22.3455 325.148 22.1769 325.73 22.0082C326.101 21.9013 326.471 21.7945 326.842 21.6877C327.015 21.6374 327.189 21.587 327.368 21.5351C327.528 21.4893 327.688 21.4435 327.853 21.3964C327.993 21.3559 328.134 21.3154 328.279 21.2737C328.625 21.1875 328.625 21.1875 329 21.1875Z" fill="#FFAD25"/>
<path d="M316.812 24.9375C316.874 24.9375 316.936 24.9375 317 24.9375C317.062 27.3506 317.124 29.7637 317.188 32.25C315.702 32.9925 315.702 32.9925 314.188 33.75C313.629 34.0321 313.629 34.0321 313.06 34.3198C312.733 34.4817 312.405 34.6433 312.078 34.8047C311.826 34.9334 311.826 34.9334 311.569 35.0647C311.327 35.1833 311.327 35.1833 311.079 35.3042C310.866 35.4107 310.866 35.4107 310.649 35.5193C310.25 35.625 310.25 35.625 309.823 35.4576C309.663 35.3548 309.663 35.3548 309.5 35.25C309.579 35.1506 309.659 35.0512 309.741 34.9488C310.59 33.8734 311.373 32.7658 312.137 31.6289C313.107 30.1957 314.085 28.7689 315.078 27.3516C315.242 27.1169 315.242 27.1169 315.41 26.8775C316.45 25.3956 316.45 25.3956 316.812 24.9375Z" fill="#FFC63A"/>
<path d="M317.188 24.75C317.754 24.9442 318.321 25.1399 318.887 25.3359C319.042 25.3891 319.197 25.4423 319.357 25.4971C319.692 25.6133 320.025 25.7344 320.357 25.8594C320.798 26.0135 321.216 26.1336 321.667 26.244C323.483 26.7419 323.483 26.7419 323.94 27.5054C324.301 28.4555 324.387 29.4527 324.488 30.457C324.528 30.7571 324.57 31.057 324.612 31.3568C324.78 32.5948 324.896 33.812 324.875 35.0625C324.689 35.1244 324.504 35.1862 324.312 35.25C324.249 35.1568 324.186 35.0636 324.121 34.9676C323.055 33.3933 321.989 31.8205 320.855 30.293C320.013 29.1549 319.187 28.005 318.371 26.8477C318.254 26.6828 318.137 26.518 318.016 26.3482C317.854 26.1179 317.854 26.1179 317.689 25.8831C317.592 25.7458 317.496 25.6086 317.396 25.4672C317.188 25.125 317.188 25.125 317.188 24.75Z" fill="#FFC743"/>
<path d="M316.812 12.375C316.936 12.4369 317.06 12.4987 317.187 12.5625C317.126 16.5225 317.064 20.4825 317 24.5625C316.209 23.7713 315.516 22.9785 314.818 22.1096C314.527 21.7498 314.229 21.3946 313.926 21.0447C313.719 20.8021 313.719 20.8021 313.508 20.5547C313.318 20.3379 313.318 20.3379 313.125 20.1167C312.875 19.6875 312.875 19.6875 312.915 19.2729C313.096 18.6299 313.367 18.0501 313.663 17.4543C313.723 17.3326 313.783 17.2109 313.845 17.0854C313.971 16.8291 314.099 16.573 314.227 16.3172C314.421 15.9275 314.611 15.5362 314.802 15.1447C314.926 14.8949 315.05 14.6453 315.175 14.3958C315.231 14.2795 315.287 14.1633 315.345 14.0435C315.722 13.3003 316.13 12.8499 316.812 12.375Z" fill="#FFCD80"/>
<path d="M320.938 19.125C320.999 19.2488 321.061 19.3725 321.125 19.5C321.61 19.5757 321.61 19.5757 322.196 19.5952C323.516 19.6778 324.81 19.8416 326.117 20.0391C326.334 20.0693 326.551 20.0995 326.774 20.1306C327.085 20.1774 327.085 20.1774 327.402 20.2251C327.588 20.2524 327.773 20.2797 327.965 20.3078C328.473 20.4473 328.673 20.5952 329 21C328.543 21.457 328.212 21.5303 327.593 21.7132C327.377 21.7775 327.161 21.8419 326.939 21.9083C326.705 21.9767 326.471 22.045 326.229 22.1155C325.987 22.1868 325.745 22.2582 325.503 22.3296C324.996 22.479 324.489 22.6275 323.981 22.7754C323.33 22.9652 322.68 23.1575 322.031 23.3505C321.531 23.4985 321.031 23.645 320.531 23.7911C320.175 23.8956 319.818 24.0015 319.462 24.1074C319.246 24.17 319.029 24.2326 318.806 24.2971C318.615 24.353 318.425 24.409 318.228 24.4666C317.75 24.5625 317.75 24.5625 317.188 24.375C317.262 24.2796 317.337 24.1843 317.414 24.086C317.756 23.6474 318.099 23.2085 318.441 22.7695C318.559 22.6196 318.676 22.4696 318.797 22.3151C320.052 20.8244 320.052 20.8244 320.938 19.125Z" fill="#FFCB6F"/>
</g>
<g clip-path="url(#clip1_30001_64)">
<path d="M350.812 5.375C351.536 5.54048 351.744 5.74132 352.172 6.36084C352.832 7.45968 353.395 8.61027 353.965 9.75781C354.078 9.98269 354.191 10.2075 354.304 10.4324C354.41 10.6443 354.516 10.8563 354.625 11.0747C354.721 11.2674 354.817 11.4602 354.916 11.6587C355.125 12.125 355.125 12.125 355.125 12.5C355.271 12.5095 355.418 12.5189 355.568 12.5287C357.096 12.6357 358.603 12.8103 360.117 13.0391C360.334 13.0693 360.551 13.0995 360.774 13.1306C361.085 13.1774 361.085 13.1774 361.402 13.2251C361.588 13.2524 361.773 13.2797 361.965 13.3078C362.495 13.4533 362.703 13.5369 363 14C363.105 14.5265 363.105 14.5265 363 15.125C362.638 15.5554 362.303 15.8961 361.886 16.2632C361.654 16.4798 361.423 16.6966 361.191 16.9136C360.825 17.2506 360.457 17.5854 360.086 17.9166C358.628 19.1358 358.628 19.1358 357.808 20.7738C357.851 21.3603 357.965 21.8719 358.125 22.4375C358.189 22.8093 358.249 23.1817 358.307 23.5544C358.409 24.1072 358.513 24.6594 358.617 25.2115C358.794 26.1748 358.954 27.0827 358.875 28.0625C358.523 28.4727 358.523 28.4727 357.937 28.625C356.206 28.154 354.604 27.1163 353.048 26.2509C352.849 26.1437 352.65 26.0365 352.444 25.926C352.266 25.8277 352.087 25.7294 351.903 25.6281C351.03 25.3132 350.461 25.53 349.635 25.9015C349.418 26.0171 349.201 26.1328 348.977 26.252C348.86 26.3137 348.742 26.3754 348.621 26.439C348.249 26.6349 347.878 26.8329 347.508 27.0312C347.135 27.2293 346.763 27.4269 346.39 27.6235C346.052 27.8017 345.716 27.9813 345.379 28.161C344.54 28.5706 344.54 28.5706 344.062 28.625C343.547 28.3555 343.547 28.3555 343.125 28.0625C343.193 26.2837 343.477 24.5686 343.805 22.8216C343.838 22.6429 343.871 22.4642 343.905 22.28C343.935 22.1208 343.965 21.9615 343.997 21.7974C344.018 21.6374 344.04 21.4774 344.062 21.3125C344.088 21.1312 344.115 20.9499 344.141 20.7631C344.028 19.936 343.544 19.5492 342.955 19.0098C342.843 18.9017 342.73 18.7936 342.614 18.6822C342.256 18.3374 341.894 17.9964 341.531 17.6562C341.053 17.2083 340.579 16.7568 340.107 16.3027C339.997 16.2013 339.886 16.0999 339.772 15.9955C339.273 15.5146 339.016 15.2157 338.896 14.524C339 14 339 14 339.196 13.6647C339.74 13.3277 340.308 13.2625 340.931 13.1775C341.065 13.1575 341.199 13.1375 341.337 13.1168C341.62 13.075 341.903 13.0342 342.187 12.9945C342.618 12.934 343.048 12.8702 343.479 12.8058C343.755 12.7654 344.03 12.7253 344.306 12.6853C344.434 12.6666 344.562 12.6478 344.693 12.6285C345.426 12.5266 346.135 12.4819 346.875 12.5C346.925 12.3398 346.975 12.1796 347.026 12.0145C347.381 10.9994 347.87 10.0498 348.348 9.08829C348.527 8.72728 348.702 8.3648 348.878 8.0022C348.992 7.77041 349.107 7.53872 349.222 7.30713C349.325 7.09827 349.428 6.88941 349.533 6.67422C349.894 6.0937 350.257 5.76594 350.812 5.375Z" fill="#FFAF34"/>
<path d="M346.875 12.5C347.296 12.8844 347.617 13.2286 347.965 13.6718C348.061 13.7902 348.157 13.9085 348.256 14.0304C348.453 14.2742 348.648 14.5193 348.841 14.7657C349.107 15.1019 349.378 15.4317 349.652 15.7607C349.807 15.9531 349.962 16.1455 350.121 16.3437C350.259 16.5158 350.398 16.6879 350.541 16.8652C350.812 17.375 350.812 17.375 350.816 17.9258C350.582 18.6294 350.211 19.1445 349.758 19.7187C348.846 20.9154 347.987 22.1402 347.144 23.3867C346.905 23.739 346.665 24.0913 346.425 24.4436C346.1 24.9211 345.776 25.3988 345.454 25.8781C345.199 26.2563 344.942 26.6323 344.683 27.0078C344.611 27.117 344.539 27.2263 344.464 27.3389C344.259 27.6333 344.259 27.6333 343.875 28.0625C343.627 28.0625 343.38 28.0625 343.125 28.0625C343.193 26.2836 343.477 24.5685 343.805 22.8216C343.838 22.6429 343.871 22.4641 343.905 22.28C343.935 22.1207 343.965 21.9615 343.997 21.7974C344.018 21.6374 344.04 21.4773 344.062 21.3125C344.088 21.1312 344.115 20.9499 344.141 20.7631C344.028 19.936 343.544 19.5492 342.955 19.0097C342.843 18.9016 342.73 18.7935 342.614 18.6821C342.256 18.3373 341.894 17.9964 341.531 17.6562C341.053 17.2083 340.579 16.7568 340.107 16.3027C339.997 16.2013 339.886 16.0999 339.772 15.9954C339.273 15.5146 339.016 15.2156 338.896 14.524C339 14 339 14 339.196 13.6647C339.74 13.3277 340.308 13.2625 340.931 13.1775C341.065 13.1574 341.199 13.1374 341.337 13.1168C341.62 13.0749 341.903 13.0342 342.187 12.9945C342.618 12.934 343.048 12.8702 343.479 12.8058C343.755 12.7654 344.03 12.7252 344.306 12.6853C344.434 12.6665 344.562 12.6478 344.693 12.6285C345.426 12.5267 346.137 12.438 346.875 12.5Z" fill="#FFAA22"/>
<path d="M351 17.9375C351.606 18.5206 352.126 19.097 352.6 19.7913C352.72 19.9656 352.84 20.14 352.963 20.3196C353.089 20.5042 353.215 20.6887 353.344 20.8789C353.611 21.267 353.878 21.655 354.145 22.0427C354.278 22.2355 354.411 22.4283 354.548 22.6269C355.205 23.5723 355.882 24.5037 356.562 25.4329C357.234 26.3551 357.873 27.2962 358.5 28.25C358.184 28.4605 358.184 28.4605 357.75 28.625C357.305 28.4991 357.305 28.4991 356.813 28.2566C356.541 28.1251 356.541 28.1251 356.265 27.991C356.074 27.8947 355.884 27.7984 355.688 27.6992C355.494 27.6039 355.301 27.5086 355.101 27.4104C351.613 25.6753 351.613 25.6753 351 25.0625C350.984 24.5353 350.979 24.0128 350.982 23.4856C350.982 23.3277 350.982 23.1698 350.983 23.0072C350.984 22.5009 350.986 21.9946 350.989 21.4883C350.989 21.1459 350.99 20.8035 350.991 20.4611C350.993 19.6199 350.996 18.7787 351 17.9375Z" fill="#FFAA15"/>
<path d="M363 14.1875C363.067 14.5809 363.067 14.5809 363 15.125C362.657 15.5658 362.326 15.9397 361.932 16.3306C361.822 16.4421 361.713 16.5535 361.6 16.6684C361.367 16.9031 361.134 17.1366 360.899 17.369C360.54 17.7254 360.188 18.0874 359.836 18.4502C359.609 18.6776 359.382 18.9047 359.155 19.1313C359.05 19.2401 358.945 19.3489 358.837 19.4609C358.347 19.9361 358.077 20.1871 357.38 20.1891C356.752 19.98 356.131 19.7683 355.513 19.5305C355.394 19.485 355.275 19.4395 355.152 19.3926C354.776 19.2484 354.4 19.1027 354.023 18.957C353.767 18.8584 353.51 18.7599 353.253 18.6615C352.627 18.4213 352.001 18.1797 351.375 17.9375C351.375 17.8137 351.375 17.69 351.375 17.5625C353.557 16.8053 355.764 16.1506 357.984 15.5129C358.566 15.3455 359.148 15.1769 359.73 15.0082C360.101 14.9013 360.471 14.7945 360.842 14.6877C361.015 14.6374 361.189 14.587 361.368 14.5351C361.528 14.4893 361.688 14.4435 361.853 14.3964C361.993 14.3559 362.134 14.3154 362.279 14.2737C362.625 14.1875 362.625 14.1875 363 14.1875Z" fill="#FFAD25"/>
<path d="M350.812 17.9375C350.874 17.9375 350.936 17.9375 351 17.9375C351.062 20.3506 351.124 22.7637 351.188 25.25C349.702 25.9925 349.702 25.9925 348.188 26.75C347.629 27.0321 347.629 27.0321 347.06 27.3198C346.733 27.4817 346.405 27.6433 346.078 27.8047C345.826 27.9334 345.826 27.9334 345.569 28.0647C345.327 28.1833 345.327 28.1833 345.079 28.3042C344.866 28.4107 344.866 28.4107 344.649 28.5193C344.25 28.625 344.25 28.625 343.823 28.4576C343.663 28.3548 343.663 28.3548 343.5 28.25C343.579 28.1506 343.659 28.0512 343.741 27.9488C344.59 26.8734 345.373 25.7658 346.137 24.6289C347.107 23.1957 348.085 21.7689 349.078 20.3516C349.242 20.1169 349.242 20.1169 349.41 19.8775C350.45 18.3956 350.45 18.3956 350.812 17.9375Z" fill="#FFC63A"/>
<path d="M351.188 17.75C351.754 17.9442 352.321 18.1399 352.887 18.3359C353.042 18.3891 353.197 18.4423 353.357 18.4971C353.692 18.6133 354.025 18.7344 354.357 18.8594C354.798 19.0135 355.216 19.1336 355.667 19.244C357.483 19.7419 357.483 19.7419 357.94 20.5054C358.301 21.4555 358.387 22.4527 358.488 23.457C358.528 23.7571 358.57 24.057 358.612 24.3568C358.78 25.5948 358.896 26.812 358.875 28.0625C358.689 28.1244 358.504 28.1862 358.312 28.25C358.249 28.1568 358.186 28.0636 358.121 27.9676C357.055 26.3933 355.989 24.8205 354.855 23.293C354.013 22.1549 353.187 21.005 352.371 19.8477C352.254 19.6828 352.137 19.518 352.016 19.3482C351.854 19.1179 351.854 19.1179 351.689 18.8831C351.592 18.7458 351.496 18.6086 351.396 18.4672C351.188 18.125 351.188 18.125 351.188 17.75Z" fill="#FFC743"/>
<path d="M350.812 5.375C350.936 5.43688 351.06 5.49875 351.187 5.5625C351.126 9.5225 351.064 13.4825 351 17.5625C350.209 16.7713 349.516 15.9785 348.818 15.1096C348.527 14.7498 348.229 14.3946 347.926 14.0447C347.719 13.8021 347.719 13.8021 347.508 13.5547C347.318 13.3379 347.318 13.3379 347.125 13.1167C346.875 12.6875 346.875 12.6875 346.915 12.2729C347.096 11.6299 347.367 11.0501 347.663 10.4543C347.723 10.3326 347.783 10.2109 347.845 10.0854C347.971 9.82905 348.099 9.57299 348.227 9.31721C348.421 8.92753 348.611 8.53619 348.802 8.14465C348.926 7.89491 349.05 7.64527 349.175 7.39575C349.231 7.27952 349.287 7.1633 349.345 7.04355C349.722 6.30027 350.13 5.84994 350.812 5.375Z" fill="#FFCD80"/>
<path d="M354.938 12.125C354.999 12.2488 355.061 12.3725 355.125 12.5C355.61 12.5757 355.61 12.5757 356.196 12.5952C357.516 12.6778 358.81 12.8416 360.117 13.0391C360.334 13.0693 360.551 13.0995 360.774 13.1306C361.085 13.1774 361.085 13.1774 361.402 13.2251C361.588 13.2524 361.773 13.2797 361.965 13.3078C362.473 13.4473 362.673 13.5952 363 14C362.543 14.457 362.212 14.5303 361.593 14.7132C361.377 14.7775 361.161 14.8419 360.939 14.9083C360.705 14.9767 360.471 15.045 360.229 15.1155C359.987 15.1868 359.745 15.2582 359.503 15.3296C358.996 15.479 358.489 15.6275 357.981 15.7754C357.33 15.9652 356.68 16.1575 356.031 16.3505C355.531 16.4985 355.031 16.645 354.531 16.7911C354.175 16.8956 353.818 17.0015 353.462 17.1074C353.246 17.17 353.029 17.2326 352.806 17.2971C352.615 17.353 352.425 17.409 352.228 17.4666C351.75 17.5625 351.75 17.5625 351.188 17.375C351.262 17.2796 351.337 17.1843 351.414 17.086C351.756 16.6474 352.099 16.2085 352.441 15.7695C352.559 15.6196 352.676 15.4696 352.797 15.3151C354.052 13.8244 354.052 13.8244 354.938 12.125Z" fill="#FFCB6F"/>
</g>
<g clip-path="url(#clip2_30001_64)">
<path d="M384.812 0.375C385.536 0.540476 385.744 0.741316 386.172 1.36084C386.832 2.45968 387.395 3.61027 387.965 4.75781C388.078 4.98269 388.191 5.20755 388.304 5.43237C388.41 5.64434 388.516 5.85631 388.625 6.07471C388.721 6.26743 388.817 6.46016 388.916 6.65872C389.125 7.125 389.125 7.125 389.125 7.5C389.271 7.50946 389.418 7.51891 389.568 7.52866C391.096 7.63567 392.603 7.81026 394.117 8.03906C394.334 8.06927 394.551 8.09949 394.774 8.13062C395.085 8.17738 395.085 8.17738 395.402 8.2251C395.588 8.25238 395.773 8.27966 395.965 8.30777C396.495 8.45325 396.703 8.5369 397 9C397.105 9.52652 397.105 9.52652 397 10.125C396.638 10.5554 396.303 10.8961 395.886 11.2632C395.654 11.4798 395.423 11.6966 395.191 11.9136C394.825 12.2506 394.457 12.5854 394.086 12.9166C392.628 14.1358 392.628 14.1358 391.808 15.7738C391.851 16.3603 391.965 16.8719 392.125 17.4375C392.189 17.8093 392.249 18.1817 392.307 18.5544C392.409 19.1072 392.513 19.6594 392.617 20.2115C392.794 21.1748 392.954 22.0827 392.875 23.0625C392.523 23.4727 392.523 23.4727 391.937 23.625C390.206 23.154 388.604 22.1163 387.048 21.2509C386.849 21.1437 386.65 21.0365 386.444 20.926C386.266 20.8277 386.087 20.7294 385.903 20.6281C385.03 20.3132 384.461 20.53 383.635 20.9015C383.418 21.0171 383.201 21.1328 382.977 21.252C382.86 21.3137 382.742 21.3754 382.621 21.439C382.249 21.6349 381.878 21.8329 381.508 22.0312C381.135 22.2293 380.763 22.4269 380.39 22.6235C380.052 22.8017 379.716 22.9813 379.379 23.161C378.54 23.5706 378.54 23.5706 378.062 23.625C377.547 23.3555 377.547 23.3555 377.125 23.0625C377.193 21.2837 377.477 19.5686 377.805 17.8216C377.838 17.6429 377.871 17.4642 377.905 17.28C377.935 17.1208 377.965 16.9615 377.997 16.7974C378.018 16.6374 378.04 16.4774 378.062 16.3125C378.088 16.1312 378.115 15.9499 378.141 15.7631C378.028 14.936 377.544 14.5492 376.955 14.0098C376.843 13.9017 376.73 13.7936 376.614 13.6822C376.256 13.3374 375.894 12.9964 375.531 12.6562C375.053 12.2083 374.579 11.7568 374.107 11.3027C373.997 11.2013 373.886 11.0999 373.772 10.9955C373.273 10.5146 373.016 10.2157 372.896 9.52405C373 9 373 9 373.196 8.66469C373.74 8.32773 374.308 8.26253 374.931 8.17749C375.065 8.15748 375.199 8.13746 375.337 8.11685C375.62 8.07498 375.903 8.03423 376.187 7.99452C376.618 7.93404 377.048 7.87023 377.479 7.80579C377.755 7.76543 378.03 7.72526 378.306 7.6853C378.434 7.66656 378.562 7.64782 378.693 7.62851C379.426 7.52664 380.135 7.48186 380.875 7.5C380.925 7.33978 380.975 7.17957 381.026 7.0145C381.381 5.99937 381.87 5.0498 382.348 4.08829C382.527 3.72728 382.702 3.3648 382.878 3.0022C382.992 2.77041 383.107 2.53872 383.222 2.30713C383.325 2.09827 383.428 1.88941 383.533 1.67422C383.894 1.0937 384.257 0.765937 384.812 0.375Z" fill="#FFAF34"/>
<path d="M380.875 7.49997C381.296 7.88441 381.617 8.22856 381.965 8.67185C382.061 8.79016 382.157 8.90847 382.256 9.03037C382.453 9.27418 382.648 9.51931 382.841 9.76572C383.107 10.1019 383.378 10.4317 383.652 10.7607C383.807 10.9531 383.962 11.1455 384.121 11.3437C384.259 11.5158 384.398 11.6879 384.541 11.8652C384.812 12.375 384.812 12.375 384.816 12.9258C384.582 13.6294 384.211 14.1445 383.758 14.7187C382.846 15.9154 381.987 17.1402 381.144 18.3867C380.905 18.739 380.665 19.0913 380.425 19.4436C380.1 19.9211 379.776 20.3988 379.454 20.8781C379.199 21.2563 378.942 21.6323 378.683 22.0078C378.611 22.117 378.539 22.2263 378.464 22.3389C378.259 22.6333 378.259 22.6333 377.875 23.0625C377.627 23.0625 377.38 23.0625 377.125 23.0625C377.193 21.2836 377.477 19.5685 377.805 17.8216C377.838 17.6429 377.871 17.4641 377.905 17.28C377.935 17.1207 377.965 16.9615 377.997 16.7974C378.018 16.6374 378.04 16.4773 378.062 16.3125C378.088 16.1312 378.115 15.9499 378.141 15.7631C378.028 14.936 377.544 14.5492 376.955 14.0097C376.843 13.9016 376.73 13.7935 376.614 13.6821C376.256 13.3373 375.894 12.9964 375.531 12.6562C375.053 12.2083 374.579 11.7568 374.107 11.3027C373.997 11.2013 373.886 11.0999 373.772 10.9954C373.273 10.5146 373.016 10.2156 372.896 9.52402C373 8.99997 373 8.99997 373.196 8.66466C373.74 8.3277 374.308 8.26251 374.931 8.17746C375.065 8.15745 375.199 8.13744 375.337 8.11682C375.62 8.07495 375.903 8.0342 376.187 7.99449C376.618 7.93401 377.048 7.87021 377.479 7.80576C377.755 7.7654 378.03 7.72523 378.306 7.68527C378.434 7.66653 378.562 7.64779 378.693 7.62848C379.426 7.5267 380.137 7.43796 380.875 7.49997Z" fill="#FFAA22"/>
<path d="M385 12.9375C385.606 13.5206 386.126 14.097 386.6 14.7913C386.72 14.9656 386.84 15.14 386.963 15.3196C387.089 15.5042 387.215 15.6887 387.344 15.8789C387.611 16.267 387.878 16.655 388.145 17.0427C388.278 17.2355 388.411 17.4283 388.548 17.6269C389.205 18.5723 389.882 19.5037 390.562 20.4329C391.234 21.3551 391.873 22.2962 392.5 23.25C392.184 23.4605 392.184 23.4605 391.75 23.625C391.305 23.4991 391.305 23.4991 390.813 23.2566C390.541 23.1251 390.541 23.1251 390.265 22.991C390.074 22.8947 389.884 22.7984 389.688 22.6992C389.494 22.6039 389.301 22.5086 389.101 22.4104C385.613 20.6753 385.613 20.6753 385 20.0625C384.984 19.5353 384.979 19.0128 384.982 18.4856C384.982 18.3277 384.982 18.1698 384.983 18.0072C384.984 17.5009 384.986 16.9946 384.989 16.4883C384.989 16.1459 384.99 15.8035 384.991 15.4611C384.993 14.6199 384.996 13.7787 385 12.9375Z" fill="#FFAA15"/>
<path d="M397 9.1875C397.067 9.5809 397.067 9.5809 397 10.125C396.657 10.5658 396.326 10.9397 395.932 11.3306C395.822 11.4421 395.713 11.5535 395.6 11.6684C395.367 11.9031 395.134 12.1366 394.899 12.369C394.54 12.7254 394.188 13.0874 393.836 13.4502C393.609 13.6776 393.382 13.9047 393.155 14.1313C393.05 14.2401 392.945 14.3489 392.837 14.4609C392.347 14.9361 392.077 15.1871 391.38 15.1891C390.752 14.98 390.131 14.7683 389.513 14.5305C389.394 14.485 389.275 14.4395 389.152 14.3926C388.776 14.2484 388.4 14.1027 388.023 13.957C387.767 13.8584 387.51 13.7599 387.253 13.6615C386.627 13.4213 386.001 13.1797 385.375 12.9375C385.375 12.8137 385.375 12.69 385.375 12.5625C387.557 11.8053 389.764 11.1506 391.984 10.5129C392.566 10.3455 393.148 10.1769 393.73 10.0082C394.101 9.9013 394.471 9.79448 394.842 9.68774C395.015 9.63737 395.189 9.58699 395.368 9.53509C395.528 9.48931 395.688 9.44354 395.853 9.39638C395.993 9.3559 396.134 9.31543 396.279 9.27373C396.625 9.1875 396.625 9.1875 397 9.1875Z" fill="#FFAD25"/>
<path d="M384.812 12.9375C384.874 12.9375 384.936 12.9375 385 12.9375C385.062 15.3506 385.124 17.7637 385.188 20.25C383.702 20.9925 383.702 20.9925 382.188 21.75C381.629 22.0321 381.629 22.0321 381.06 22.3198C380.733 22.4817 380.405 22.6433 380.078 22.8047C379.826 22.9334 379.826 22.9334 379.569 23.0647C379.327 23.1833 379.327 23.1833 379.079 23.3042C378.866 23.4107 378.866 23.4107 378.649 23.5193C378.25 23.625 378.25 23.625 377.823 23.4576C377.663 23.3548 377.663 23.3548 377.5 23.25C377.579 23.1506 377.659 23.0512 377.741 22.9488C378.59 21.8734 379.373 20.7658 380.137 19.6289C381.107 18.1957 382.085 16.7689 383.078 15.3516C383.242 15.1169 383.242 15.1169 383.41 14.8775C384.45 13.3956 384.45 13.3956 384.812 12.9375Z" fill="#FFC63A"/>
<path d="M385.188 12.75C385.754 12.9442 386.321 13.1399 386.887 13.3359C387.042 13.3891 387.197 13.4423 387.357 13.4971C387.692 13.6133 388.025 13.7344 388.357 13.8594C388.798 14.0135 389.216 14.1336 389.667 14.244C391.483 14.7419 391.483 14.7419 391.94 15.5054C392.301 16.4555 392.387 17.4527 392.488 18.457C392.528 18.7571 392.57 19.057 392.612 19.3568C392.78 20.5948 392.896 21.812 392.875 23.0625C392.689 23.1244 392.504 23.1862 392.312 23.25C392.249 23.1568 392.186 23.0636 392.121 22.9676C391.055 21.3933 389.989 19.8205 388.855 18.293C388.013 17.1549 387.187 16.005 386.371 14.8477C386.254 14.6828 386.137 14.518 386.016 14.3482C385.854 14.1179 385.854 14.1179 385.689 13.8831C385.592 13.7458 385.496 13.6086 385.396 13.4672C385.188 13.125 385.188 13.125 385.188 12.75Z" fill="#FFC743"/>
<path d="M384.812 0.375C384.936 0.436875 385.06 0.49875 385.187 0.5625C385.126 4.5225 385.064 8.4825 385 12.5625C384.209 11.7713 383.516 10.9785 382.818 10.1096C382.527 9.74977 382.229 9.39455 381.926 9.04468C381.719 8.80213 381.719 8.80213 381.508 8.55469C381.318 8.33788 381.318 8.33788 381.125 8.1167C380.875 7.6875 380.875 7.6875 380.915 7.2729C381.096 6.62986 381.367 6.05007 381.663 5.45435C381.723 5.3326 381.783 5.21085 381.845 5.08541C381.971 4.82905 382.099 4.57299 382.227 4.31721C382.421 3.92753 382.611 3.53619 382.802 3.14465C382.926 2.89491 383.05 2.64527 383.175 2.39575C383.231 2.27952 383.287 2.1633 383.345 2.04355C383.722 1.30027 384.13 0.849938 384.812 0.375Z" fill="#FFCD80"/>
<path d="M388.938 7.125C388.999 7.24875 389.061 7.3725 389.125 7.5C389.61 7.57569 389.61 7.57569 390.196 7.59521C391.516 7.67782 392.81 7.84156 394.117 8.03906C394.334 8.06927 394.551 8.09949 394.774 8.13062C395.085 8.17738 395.085 8.17738 395.402 8.2251C395.588 8.25238 395.773 8.27966 395.965 8.30777C396.473 8.44731 396.673 8.59525 397 9C396.543 9.45701 396.212 9.53033 395.593 9.71315C395.377 9.77754 395.161 9.84194 394.939 9.90828C394.705 9.97666 394.471 10.045 394.229 10.1155C393.987 10.1868 393.745 10.2582 393.503 10.3296C392.996 10.479 392.489 10.6275 391.981 10.7754C391.33 10.9652 390.68 11.1575 390.031 11.3505C389.531 11.4985 389.031 11.645 388.531 11.7911C388.175 11.8956 387.818 12.0015 387.462 12.1074C387.246 12.17 387.029 12.2326 386.806 12.2971C386.615 12.353 386.425 12.409 386.228 12.4666C385.75 12.5625 385.75 12.5625 385.188 12.375C385.262 12.2796 385.337 12.1843 385.414 12.086C385.756 11.6474 386.099 11.2085 386.441 10.7695C386.559 10.6196 386.676 10.4696 386.797 10.3151C388.052 8.82441 388.052 8.82441 388.938 7.125Z" fill="#FFCB6F"/>
</g>
<g clip-path="url(#clip3_30001_64)">
<path d="M418.812 5.375C419.536 5.54048 419.744 5.74132 420.172 6.36084C420.832 7.45968 421.395 8.61027 421.965 9.75781C422.078 9.98269 422.191 10.2075 422.304 10.4324C422.41 10.6443 422.516 10.8563 422.625 11.0747C422.721 11.2674 422.817 11.4602 422.916 11.6587C423.125 12.125 423.125 12.125 423.125 12.5C423.271 12.5095 423.418 12.5189 423.568 12.5287C425.096 12.6357 426.603 12.8103 428.117 13.0391C428.334 13.0693 428.551 13.0995 428.774 13.1306C429.085 13.1774 429.085 13.1774 429.402 13.2251C429.588 13.2524 429.773 13.2797 429.965 13.3078C430.495 13.4533 430.703 13.5369 431 14C431.105 14.5265 431.105 14.5265 431 15.125C430.638 15.5554 430.303 15.8961 429.886 16.2632C429.654 16.4798 429.423 16.6966 429.191 16.9136C428.825 17.2506 428.457 17.5854 428.086 17.9166C426.628 19.1358 426.628 19.1358 425.808 20.7738C425.851 21.3603 425.965 21.8719 426.125 22.4375C426.189 22.8093 426.249 23.1817 426.307 23.5544C426.409 24.1072 426.513 24.6594 426.617 25.2115C426.794 26.1748 426.954 27.0827 426.875 28.0625C426.523 28.4727 426.523 28.4727 425.937 28.625C424.206 28.154 422.604 27.1163 421.048 26.2509C420.849 26.1437 420.65 26.0365 420.444 25.926C420.266 25.8277 420.087 25.7294 419.903 25.6281C419.03 25.3132 418.461 25.53 417.635 25.9015C417.418 26.0171 417.201 26.1328 416.977 26.252C416.86 26.3137 416.742 26.3754 416.621 26.439C416.249 26.6349 415.878 26.8329 415.508 27.0312C415.135 27.2293 414.763 27.4269 414.39 27.6235C414.052 27.8017 413.716 27.9813 413.379 28.161C412.54 28.5706 412.54 28.5706 412.062 28.625C411.547 28.3555 411.547 28.3555 411.125 28.0625C411.193 26.2837 411.477 24.5686 411.805 22.8216C411.838 22.6429 411.871 22.4642 411.905 22.28C411.935 22.1208 411.965 21.9615 411.997 21.7974C412.018 21.6374 412.04 21.4774 412.062 21.3125C412.088 21.1312 412.115 20.9499 412.141 20.7631C412.028 19.936 411.544 19.5492 410.955 19.0098C410.843 18.9017 410.73 18.7936 410.614 18.6822C410.256 18.3374 409.894 17.9964 409.531 17.6562C409.053 17.2083 408.579 16.7568 408.107 16.3027C407.997 16.2013 407.886 16.0999 407.772 15.9955C407.273 15.5146 407.016 15.2157 406.896 14.524C407 14 407 14 407.196 13.6647C407.74 13.3277 408.308 13.2625 408.931 13.1775C409.065 13.1575 409.199 13.1375 409.337 13.1168C409.62 13.075 409.903 13.0342 410.187 12.9945C410.618 12.934 411.048 12.8702 411.479 12.8058C411.755 12.7654 412.03 12.7253 412.306 12.6853C412.434 12.6666 412.562 12.6478 412.693 12.6285C413.426 12.5266 414.135 12.4819 414.875 12.5C414.925 12.3398 414.975 12.1796 415.026 12.0145C415.381 10.9994 415.87 10.0498 416.348 9.08829C416.527 8.72728 416.702 8.3648 416.878 8.0022C416.992 7.77041 417.107 7.53872 417.222 7.30713C417.325 7.09827 417.428 6.88941 417.533 6.67422C417.894 6.0937 418.257 5.76594 418.812 5.375Z" fill="#FFAF34"/>
<path d="M414.875 12.5C415.296 12.8844 415.617 13.2286 415.965 13.6718C416.061 13.7902 416.157 13.9085 416.256 14.0304C416.453 14.2742 416.648 14.5193 416.841 14.7657C417.107 15.1019 417.378 15.4317 417.652 15.7607C417.807 15.9531 417.962 16.1455 418.121 16.3437C418.259 16.5158 418.398 16.6879 418.541 16.8652C418.812 17.375 418.812 17.375 418.816 17.9258C418.582 18.6294 418.211 19.1445 417.758 19.7187C416.846 20.9154 415.987 22.1402 415.144 23.3867C414.905 23.739 414.665 24.0913 414.425 24.4436C414.1 24.9211 413.776 25.3988 413.454 25.8781C413.199 26.2563 412.942 26.6323 412.683 27.0078C412.611 27.117 412.539 27.2263 412.464 27.3389C412.259 27.6333 412.259 27.6333 411.875 28.0625C411.627 28.0625 411.38 28.0625 411.125 28.0625C411.193 26.2836 411.477 24.5685 411.805 22.8216C411.838 22.6429 411.871 22.4641 411.905 22.28C411.935 22.1207 411.965 21.9615 411.997 21.7974C412.018 21.6374 412.04 21.4773 412.062 21.3125C412.088 21.1312 412.115 20.9499 412.141 20.7631C412.028 19.936 411.544 19.5492 410.955 19.0097C410.843 18.9016 410.73 18.7935 410.614 18.6821C410.256 18.3373 409.894 17.9964 409.531 17.6562C409.053 17.2083 408.579 16.7568 408.107 16.3027C407.997 16.2013 407.886 16.0999 407.772 15.9954C407.273 15.5146 407.016 15.2156 406.896 14.524C407 14 407 14 407.196 13.6647C407.74 13.3277 408.308 13.2625 408.931 13.1775C409.065 13.1574 409.199 13.1374 409.337 13.1168C409.62 13.0749 409.903 13.0342 410.187 12.9945C410.618 12.934 411.048 12.8702 411.479 12.8058C411.755 12.7654 412.03 12.7252 412.306 12.6853C412.434 12.6665 412.562 12.6478 412.693 12.6285C413.426 12.5267 414.137 12.438 414.875 12.5Z" fill="#FFAA22"/>
<path d="M419 17.9375C419.606 18.5206 420.126 19.097 420.6 19.7913C420.72 19.9656 420.84 20.14 420.963 20.3196C421.089 20.5042 421.215 20.6887 421.344 20.8789C421.611 21.267 421.878 21.655 422.145 22.0427C422.278 22.2355 422.411 22.4283 422.548 22.6269C423.205 23.5723 423.882 24.5037 424.562 25.4329C425.234 26.3551 425.873 27.2962 426.5 28.25C426.184 28.4605 426.184 28.4605 425.75 28.625C425.305 28.4991 425.305 28.4991 424.813 28.2566C424.541 28.1251 424.541 28.1251 424.265 27.991C424.074 27.8947 423.884 27.7984 423.688 27.6992C423.494 27.6039 423.301 27.5086 423.101 27.4104C419.613 25.6753 419.613 25.6753 419 25.0625C418.984 24.5353 418.979 24.0128 418.982 23.4856C418.982 23.3277 418.982 23.1698 418.983 23.0072C418.984 22.5009 418.986 21.9946 418.989 21.4883C418.989 21.1459 418.99 20.8035 418.991 20.4611C418.993 19.6199 418.996 18.7787 419 17.9375Z" fill="#FFAA15"/>
<path d="M431 14.1875C431.067 14.5809 431.067 14.5809 431 15.125C430.657 15.5658 430.326 15.9397 429.932 16.3306C429.822 16.4421 429.713 16.5535 429.6 16.6684C429.367 16.9031 429.134 17.1366 428.899 17.369C428.54 17.7254 428.188 18.0874 427.836 18.4502C427.609 18.6776 427.382 18.9047 427.155 19.1313C427.05 19.2401 426.945 19.3489 426.837 19.4609C426.347 19.9361 426.077 20.1871 425.38 20.1891C424.752 19.98 424.131 19.7683 423.513 19.5305C423.394 19.485 423.275 19.4395 423.152 19.3926C422.776 19.2484 422.4 19.1027 422.023 18.957C421.767 18.8584 421.51 18.7599 421.253 18.6615C420.627 18.4213 420.001 18.1797 419.375 17.9375C419.375 17.8137 419.375 17.69 419.375 17.5625C421.557 16.8053 423.764 16.1506 425.984 15.5129C426.566 15.3455 427.148 15.1769 427.73 15.0082C428.101 14.9013 428.471 14.7945 428.842 14.6877C429.015 14.6374 429.189 14.587 429.368 14.5351C429.528 14.4893 429.688 14.4435 429.853 14.3964C429.993 14.3559 430.134 14.3154 430.279 14.2737C430.625 14.1875 430.625 14.1875 431 14.1875Z" fill="#FFAD25"/>
<path d="M418.812 17.9375C418.874 17.9375 418.936 17.9375 419 17.9375C419.062 20.3506 419.124 22.7637 419.188 25.25C417.702 25.9925 417.702 25.9925 416.188 26.75C415.629 27.0321 415.629 27.0321 415.06 27.3198C414.733 27.4817 414.405 27.6433 414.078 27.8047C413.826 27.9334 413.826 27.9334 413.569 28.0647C413.327 28.1833 413.327 28.1833 413.079 28.3042C412.866 28.4107 412.866 28.4107 412.649 28.5193C412.25 28.625 412.25 28.625 411.823 28.4576C411.663 28.3548 411.663 28.3548 411.5 28.25C411.579 28.1506 411.659 28.0512 411.741 27.9488C412.59 26.8734 413.373 25.7658 414.137 24.6289C415.107 23.1957 416.085 21.7689 417.078 20.3516C417.242 20.1169 417.242 20.1169 417.41 19.8775C418.45 18.3956 418.45 18.3956 418.812 17.9375Z" fill="#FFC63A"/>
<path d="M419.188 17.75C419.754 17.9442 420.321 18.1399 420.887 18.3359C421.042 18.3891 421.197 18.4423 421.357 18.4971C421.692 18.6133 422.025 18.7344 422.357 18.8594C422.798 19.0135 423.216 19.1336 423.667 19.244C425.483 19.7419 425.483 19.7419 425.94 20.5054C426.301 21.4555 426.387 22.4527 426.488 23.457C426.528 23.7571 426.57 24.057 426.612 24.3568C426.78 25.5948 426.896 26.812 426.875 28.0625C426.689 28.1244 426.504 28.1862 426.312 28.25C426.249 28.1568 426.186 28.0636 426.121 27.9676C425.055 26.3933 423.989 24.8205 422.855 23.293C422.013 22.1549 421.187 21.005 420.371 19.8477C420.254 19.6828 420.137 19.518 420.016 19.3482C419.854 19.1179 419.854 19.1179 419.689 18.8831C419.592 18.7458 419.496 18.6086 419.396 18.4672C419.188 18.125 419.188 18.125 419.188 17.75Z" fill="#FFC743"/>
<path d="M418.812 5.375C418.936 5.43688 419.06 5.49875 419.187 5.5625C419.126 9.5225 419.064 13.4825 419 17.5625C418.209 16.7713 417.516 15.9785 416.818 15.1096C416.527 14.7498 416.229 14.3946 415.926 14.0447C415.719 13.8021 415.719 13.8021 415.508 13.5547C415.318 13.3379 415.318 13.3379 415.125 13.1167C414.875 12.6875 414.875 12.6875 414.915 12.2729C415.096 11.6299 415.367 11.0501 415.663 10.4543C415.723 10.3326 415.783 10.2109 415.845 10.0854C415.971 9.82905 416.099 9.57299 416.227 9.31721C416.421 8.92753 416.611 8.53619 416.802 8.14465C416.926 7.89491 417.05 7.64527 417.175 7.39575C417.231 7.27952 417.287 7.1633 417.345 7.04355C417.722 6.30027 418.13 5.84994 418.812 5.375Z" fill="#FFCD80"/>
<path d="M422.938 12.125C422.999 12.2488 423.061 12.3725 423.125 12.5C423.61 12.5757 423.61 12.5757 424.196 12.5952C425.516 12.6778 426.81 12.8416 428.117 13.0391C428.334 13.0693 428.551 13.0995 428.774 13.1306C429.085 13.1774 429.085 13.1774 429.402 13.2251C429.588 13.2524 429.773 13.2797 429.965 13.3078C430.473 13.4473 430.673 13.5952 431 14C430.543 14.457 430.212 14.5303 429.593 14.7132C429.377 14.7775 429.161 14.8419 428.939 14.9083C428.705 14.9767 428.471 15.045 428.229 15.1155C427.987 15.1868 427.745 15.2582 427.503 15.3296C426.996 15.479 426.489 15.6275 425.981 15.7754C425.33 15.9652 424.68 16.1575 424.031 16.3505C423.531 16.4985 423.031 16.645 422.531 16.7911C422.175 16.8956 421.818 17.0015 421.462 17.1074C421.246 17.17 421.029 17.2326 420.806 17.2971C420.615 17.353 420.425 17.409 420.228 17.4666C419.75 17.5625 419.75 17.5625 419.188 17.375C419.262 17.2796 419.337 17.1843 419.414 17.086C419.756 16.6474 420.099 16.2085 420.441 15.7695C420.559 15.6196 420.676 15.4696 420.797 15.3151C422.052 13.8244 422.052 13.8244 422.938 12.125Z" fill="#FFCB6F"/>
</g>
<g clip-path="url(#clip4_30001_64)">
<path d="M452.812 12.375C453.536 12.5405 453.744 12.7413 454.172 13.3608C454.832 14.4597 455.395 15.6103 455.965 16.7578C456.078 16.9827 456.191 17.2075 456.304 17.4324C456.41 17.6443 456.516 17.8563 456.625 18.0747C456.721 18.2674 456.817 18.4602 456.916 18.6587C457.125 19.125 457.125 19.125 457.125 19.5C457.271 19.5095 457.418 19.5189 457.568 19.5287C459.096 19.6357 460.603 19.8103 462.117 20.0391C462.334 20.0693 462.551 20.0995 462.774 20.1306C463.085 20.1774 463.085 20.1774 463.402 20.2251C463.588 20.2524 463.773 20.2797 463.965 20.3078C464.495 20.4533 464.703 20.5369 465 21C465.105 21.5265 465.105 21.5265 465 22.125C464.638 22.5554 464.303 22.8961 463.886 23.2632C463.654 23.4798 463.423 23.6966 463.191 23.9136C462.825 24.2506 462.457 24.5854 462.086 24.9166C460.628 26.1358 460.628 26.1358 459.808 27.7738C459.851 28.3603 459.965 28.8719 460.125 29.4375C460.189 29.8093 460.249 30.1817 460.307 30.5544C460.409 31.1072 460.513 31.6594 460.617 32.2115C460.794 33.1748 460.954 34.0827 460.875 35.0625C460.523 35.4727 460.523 35.4727 459.937 35.625C458.206 35.154 456.604 34.1163 455.048 33.2509C454.849 33.1437 454.65 33.0365 454.444 32.926C454.266 32.8277 454.087 32.7294 453.903 32.6281C453.03 32.3132 452.461 32.53 451.635 32.9015C451.418 33.0171 451.201 33.1328 450.977 33.252C450.86 33.3137 450.742 33.3754 450.621 33.439C450.249 33.6349 449.878 33.8329 449.508 34.0312C449.135 34.2293 448.763 34.4269 448.39 34.6235C448.052 34.8017 447.716 34.9813 447.379 35.161C446.54 35.5706 446.54 35.5706 446.062 35.625C445.547 35.3555 445.547 35.3555 445.125 35.0625C445.193 33.2837 445.477 31.5686 445.805 29.8216C445.838 29.6429 445.871 29.4642 445.905 29.28C445.935 29.1208 445.965 28.9615 445.997 28.7974C446.018 28.6374 446.04 28.4774 446.062 28.3125C446.088 28.1312 446.115 27.9499 446.141 27.7631C446.028 26.936 445.544 26.5492 444.955 26.0098C444.843 25.9017 444.73 25.7936 444.614 25.6822C444.256 25.3374 443.894 24.9964 443.531 24.6562C443.053 24.2083 442.579 23.7568 442.107 23.3027C441.997 23.2013 441.886 23.0999 441.772 22.9955C441.273 22.5146 441.016 22.2157 440.896 21.524C441 21 441 21 441.196 20.6647C441.74 20.3277 442.308 20.2625 442.931 20.1775C443.065 20.1575 443.199 20.1375 443.337 20.1168C443.62 20.075 443.903 20.0342 444.187 19.9945C444.618 19.934 445.048 19.8702 445.479 19.8058C445.755 19.7654 446.03 19.7253 446.306 19.6853C446.434 19.6666 446.562 19.6478 446.693 19.6285C447.426 19.5266 448.135 19.4819 448.875 19.5C448.925 19.3398 448.975 19.1796 449.026 19.0145C449.381 17.9994 449.87 17.0498 450.348 16.0883C450.527 15.7273 450.702 15.3648 450.878 15.0022C450.992 14.7704 451.107 14.5387 451.222 14.3071C451.325 14.0983 451.428 13.8894 451.533 13.6742C451.894 13.0937 452.257 12.7659 452.812 12.375Z" fill="#FFAF34"/>
<path d="M448.875 19.5C449.296 19.8844 449.617 20.2286 449.965 20.6718C450.061 20.7902 450.157 20.9085 450.256 21.0304C450.453 21.2742 450.648 21.5193 450.841 21.7657C451.107 22.1019 451.378 22.4317 451.652 22.7607C451.807 22.9531 451.962 23.1455 452.121 23.3437C452.259 23.5158 452.398 23.6879 452.541 23.8652C452.812 24.375 452.812 24.375 452.816 24.9258C452.582 25.6294 452.211 26.1445 451.758 26.7187C450.846 27.9154 449.987 29.1402 449.144 30.3867C448.905 30.739 448.665 31.0913 448.425 31.4436C448.1 31.9211 447.776 32.3988 447.454 32.8781C447.199 33.2563 446.942 33.6323 446.683 34.0078C446.611 34.117 446.539 34.2263 446.464 34.3389C446.259 34.6333 446.259 34.6333 445.875 35.0625C445.627 35.0625 445.38 35.0625 445.125 35.0625C445.193 33.2836 445.477 31.5685 445.805 29.8216C445.838 29.6429 445.871 29.4641 445.905 29.28C445.935 29.1207 445.965 28.9615 445.997 28.7974C446.018 28.6374 446.04 28.4773 446.062 28.3125C446.088 28.1312 446.115 27.9499 446.141 27.7631C446.028 26.936 445.544 26.5492 444.955 26.0097C444.843 25.9016 444.73 25.7935 444.614 25.6821C444.256 25.3373 443.894 24.9964 443.531 24.6562C443.053 24.2083 442.579 23.7568 442.107 23.3027C441.997 23.2013 441.886 23.0999 441.772 22.9954C441.273 22.5146 441.016 22.2156 440.896 21.524C441 21 441 21 441.196 20.6647C441.74 20.3277 442.308 20.2625 442.931 20.1775C443.065 20.1574 443.199 20.1374 443.337 20.1168C443.62 20.0749 443.903 20.0342 444.187 19.9945C444.618 19.934 445.048 19.8702 445.479 19.8058C445.755 19.7654 446.03 19.7252 446.306 19.6853C446.434 19.6665 446.562 19.6478 446.693 19.6285C447.426 19.5267 448.137 19.438 448.875 19.5Z" fill="#FFAA22"/>
<path d="M453 24.9375C453.606 25.5206 454.126 26.097 454.6 26.7913C454.72 26.9656 454.84 27.14 454.963 27.3196C455.089 27.5042 455.215 27.6887 455.344 27.8789C455.611 28.267 455.878 28.655 456.145 29.0427C456.278 29.2355 456.411 29.4283 456.548 29.6269C457.205 30.5723 457.882 31.5037 458.562 32.4329C459.234 33.3551 459.873 34.2962 460.5 35.25C460.184 35.4605 460.184 35.4605 459.75 35.625C459.305 35.4991 459.305 35.4991 458.813 35.2566C458.541 35.1251 458.541 35.1251 458.265 34.991C458.074 34.8947 457.884 34.7984 457.688 34.6992C457.494 34.6039 457.301 34.5086 457.101 34.4104C453.613 32.6753 453.613 32.6753 453 32.0625C452.984 31.5353 452.979 31.0128 452.982 30.4856C452.982 30.3277 452.982 30.1698 452.983 30.0072C452.984 29.5009 452.986 28.9946 452.989 28.4883C452.989 28.1459 452.99 27.8035 452.991 27.4611C452.993 26.6199 452.996 25.7787 453 24.9375Z" fill="#FFAA15"/>
<path d="M465 21.1875C465.067 21.5809 465.067 21.5809 465 22.125C464.657 22.5658 464.326 22.9397 463.932 23.3306C463.822 23.4421 463.713 23.5535 463.6 23.6684C463.367 23.9031 463.134 24.1366 462.899 24.369C462.54 24.7254 462.188 25.0874 461.836 25.4502C461.609 25.6776 461.382 25.9047 461.155 26.1313C461.05 26.2401 460.945 26.3489 460.837 26.4609C460.347 26.9361 460.077 27.1871 459.38 27.1891C458.752 26.98 458.131 26.7683 457.513 26.5305C457.394 26.485 457.275 26.4395 457.152 26.3926C456.776 26.2484 456.4 26.1027 456.023 25.957C455.767 25.8584 455.51 25.7599 455.253 25.6615C454.627 25.4213 454.001 25.1797 453.375 24.9375C453.375 24.8137 453.375 24.69 453.375 24.5625C455.557 23.8053 457.764 23.1506 459.984 22.5129C460.566 22.3455 461.148 22.1769 461.73 22.0082C462.101 21.9013 462.471 21.7945 462.842 21.6877C463.015 21.6374 463.189 21.587 463.368 21.5351C463.528 21.4893 463.688 21.4435 463.853 21.3964C463.993 21.3559 464.134 21.3154 464.279 21.2737C464.625 21.1875 464.625 21.1875 465 21.1875Z" fill="#FFAD25"/>
<path d="M452.812 24.9375C452.874 24.9375 452.936 24.9375 453 24.9375C453.062 27.3506 453.124 29.7637 453.188 32.25C451.702 32.9925 451.702 32.9925 450.188 33.75C449.629 34.0321 449.629 34.0321 449.06 34.3198C448.733 34.4817 448.405 34.6433 448.078 34.8047C447.826 34.9334 447.826 34.9334 447.569 35.0647C447.327 35.1833 447.327 35.1833 447.079 35.3042C446.866 35.4107 446.866 35.4107 446.649 35.5193C446.25 35.625 446.25 35.625 445.823 35.4576C445.663 35.3548 445.663 35.3548 445.5 35.25C445.579 35.1506 445.659 35.0512 445.741 34.9488C446.59 33.8734 447.373 32.7658 448.137 31.6289C449.107 30.1957 450.085 28.7689 451.078 27.3516C451.242 27.1169 451.242 27.1169 451.41 26.8775C452.45 25.3956 452.45 25.3956 452.812 24.9375Z" fill="#FFC63A"/>
<path d="M453.188 24.75C453.754 24.9442 454.321 25.1399 454.887 25.3359C455.042 25.3891 455.197 25.4423 455.357 25.4971C455.692 25.6133 456.025 25.7344 456.357 25.8594C456.798 26.0135 457.216 26.1336 457.667 26.244C459.483 26.7419 459.483 26.7419 459.94 27.5054C460.301 28.4555 460.387 29.4527 460.488 30.457C460.528 30.7571 460.57 31.057 460.612 31.3568C460.78 32.5948 460.896 33.812 460.875 35.0625C460.689 35.1244 460.504 35.1862 460.312 35.25C460.249 35.1568 460.186 35.0636 460.121 34.9676C459.055 33.3933 457.989 31.8205 456.855 30.293C456.013 29.1549 455.187 28.005 454.371 26.8477C454.254 26.6828 454.137 26.518 454.016 26.3482C453.854 26.1179 453.854 26.1179 453.689 25.8831C453.592 25.7458 453.496 25.6086 453.396 25.4672C453.188 25.125 453.188 25.125 453.188 24.75Z" fill="#FFC743"/>
<path d="M452.812 12.375C452.936 12.4369 453.06 12.4987 453.187 12.5625C453.126 16.5225 453.064 20.4825 453 24.5625C452.209 23.7713 451.516 22.9785 450.818 22.1096C450.527 21.7498 450.229 21.3946 449.926 21.0447C449.719 20.8021 449.719 20.8021 449.508 20.5547C449.318 20.3379 449.318 20.3379 449.125 20.1167C448.875 19.6875 448.875 19.6875 448.915 19.2729C449.096 18.6299 449.367 18.0501 449.663 17.4543C449.723 17.3326 449.783 17.2109 449.845 17.0854C449.971 16.8291 450.099 16.573 450.227 16.3172C450.421 15.9275 450.611 15.5362 450.802 15.1447C450.926 14.8949 451.05 14.6453 451.175 14.3958C451.231 14.2795 451.287 14.1633 451.345 14.0435C451.722 13.3003 452.13 12.8499 452.812 12.375Z" fill="#FFCD80"/>
<path d="M456.938 19.125C456.999 19.2488 457.061 19.3725 457.125 19.5C457.61 19.5757 457.61 19.5757 458.196 19.5952C459.516 19.6778 460.81 19.8416 462.117 20.0391C462.334 20.0693 462.551 20.0995 462.774 20.1306C463.085 20.1774 463.085 20.1774 463.402 20.2251C463.588 20.2524 463.773 20.2797 463.965 20.3078C464.473 20.4473 464.673 20.5952 465 21C464.543 21.457 464.212 21.5303 463.593 21.7132C463.377 21.7775 463.161 21.8419 462.939 21.9083C462.705 21.9767 462.471 22.045 462.229 22.1155C461.987 22.1868 461.745 22.2582 461.503 22.3296C460.996 22.479 460.489 22.6275 459.981 22.7754C459.33 22.9652 458.68 23.1575 458.031 23.3505C457.531 23.4985 457.031 23.645 456.531 23.7911C456.175 23.8956 455.818 24.0015 455.462 24.1074C455.246 24.17 455.029 24.2326 454.806 24.2971C454.615 24.353 454.425 24.409 454.228 24.4666C453.75 24.5625 453.75 24.5625 453.188 24.375C453.262 24.2796 453.337 24.1843 453.414 24.086C453.756 23.6474 454.099 23.2085 454.441 22.7695C454.559 22.6196 454.676 22.4696 454.797 22.3151C456.052 20.8244 456.052 20.8244 456.938 19.125Z" fill="#FFCB6F"/>
</g>
<path d="M104.7 168.2L105 170H84.15C81.45 170 78.95 168.8 76.65 166.4C74.35 163.9 72.1 160.7 69.9 156.8C67.8 152.8 65.55 148.6 63.15 144.2C60.85 139.8 58.25 135.65 55.35 131.75C52.55 127.75 49.3 124.45 45.6 121.85C42 119.15 37.75 117.7 32.85 117.5V136.1C32.85 143.4 33 149.2 33.3 153.5C33.6 157.8 34.25 161 35.25 163.1C36.25 165.2 37.7 166.6 39.6 167.3C41.6 167.9 44.3 168.2 47.7 168.2L48 170H7.8L8.1 168.2C11.5 168.2 14.15 167.9 16.05 167.3C18.05 166.6 19.5 165.2 20.4 163.1C21.3 161 21.85 157.8 22.05 153.5C22.35 149.2 22.5 143.4 22.5 136.1V98.15C22.5 90.85 22.35 85.1 22.05 80.9C21.85 76.7 21.3 73.6 20.4 71.6C19.5 69.6 18.05 68.3 16.05 67.7C14.15 67.1 11.5 66.8 8.1 66.8L7.8 65H42.6C46.9 65 51.25 65.35 55.65 66.05C60.05 66.65 64.1 67.85 67.8 69.65C71.6 71.45 74.65 74.05 76.95 77.45C79.25 80.75 80.4 85.1 80.4 90.5C80.4 95.6 79.15 100.1 76.65 104C74.15 107.8 70.9 110.9 66.9 113.3C62.9 115.6 58.6 117 54 117.5C57.9 119.8 61.25 122.65 64.05 126.05C66.85 129.35 69.35 132.9 71.55 136.7C73.75 140.5 75.9 144.25 78 147.95C80.1 151.65 82.35 155.05 84.75 158.15C87.15 161.15 89.95 163.6 93.15 165.5C96.35 167.3 100.2 168.2 104.7 168.2ZM32.85 68.45V114.5H42.3C47 114.5 51.35 113.7 55.35 112.1C59.35 110.5 62.55 108 64.95 104.6C67.45 101.1 68.7 96.5 68.7 90.8C68.7 83.3 66.4 77.7 61.8 74C57.3 70.3 50.9 68.45 42.6 68.45H32.85ZM190.859 148.55L192.659 148.25V170H117.059L117.359 168.2C120.759 168.2 123.409 167.9 125.309 167.3C127.309 166.6 128.759 165.2 129.659 163.1C130.659 161 131.309 157.8 131.609 153.5C131.909 149.2 132.059 143.4 132.059 136.1V98.9C132.059 91.6 131.909 85.8 131.609 81.5C131.309 77.2 130.659 74 129.659 71.9C128.759 69.7 127.309 68.3 125.309 67.7C123.409 67 120.759 66.65 117.359 66.65L117.059 65H187.109V86.6L185.309 86.3C185.309 79.3 181.559 74.6 174.059 72.2C166.659 69.7 156.109 68.45 142.409 68.45V115.7C149.509 115.7 155.109 115.45 159.209 114.95C163.309 114.45 166.359 113.65 168.359 112.55C170.359 111.35 171.609 109.7 172.109 107.6C172.709 105.4 173.009 102.65 173.009 99.35L174.659 99.05V135.5L173.009 135.2C173.009 131.9 172.709 129.2 172.109 127.1C171.609 124.9 170.359 123.25 168.359 122.15C166.359 120.95 163.309 120.15 159.209 119.75C155.109 119.25 149.509 119 142.409 119V138.35C142.409 145.25 142.559 150.6 142.859 154.4C143.159 158.2 143.709 161 144.509 162.8C145.409 164.5 146.759 165.75 148.559 166.55C156.859 166.55 164.159 165.95 170.459 164.75C176.859 163.55 181.859 161.65 185.459 159.05C189.059 156.35 190.859 152.85 190.859 148.55ZM251.19 168.05C255.29 168.05 259.09 167.4 262.59 166.1C266.09 164.7 268.94 162.5 271.14 159.5C273.34 156.4 274.44 152.3 274.44 147.2C274.44 143 273.19 139.35 270.69 136.25C268.19 133.05 264.94 130.2 260.94 127.7C257.04 125.1 252.89 122.55 248.49 120.05C244.09 117.55 239.89 114.85 235.89 111.95C231.99 109.05 228.79 105.7 226.29 101.9C223.79 98.1 222.54 93.6 222.54 88.4C222.54 83.4 223.84 79.05 226.44 75.35C229.14 71.65 232.69 68.8 237.09 66.8C241.59 64.7 246.54 63.65 251.94 63.65C256.84 63.65 261.79 64.25 266.79 65.45C271.89 66.65 276.14 68.1 279.54 69.8C279.54 74.5 279.29 79.05 278.79 83.45C278.29 87.85 277.79 91.9 277.29 95.6L275.04 95C275.04 88.1 273.84 82.6 271.44 78.5C269.14 74.4 266.19 71.45 262.59 69.65C259.09 67.85 255.59 66.95 252.09 66.95C246.29 66.95 241.59 68.7 237.99 72.2C234.39 75.6 232.59 79.95 232.59 85.25C232.59 89.65 233.84 93.4 236.34 96.5C238.84 99.6 242.04 102.4 245.94 104.9C249.94 107.3 254.14 109.7 258.54 112.1C262.94 114.4 267.09 116.95 270.99 119.75C274.99 122.55 278.24 125.9 280.74 129.8C283.24 133.6 284.49 138.2 284.49 143.6C284.49 150.2 282.84 155.55 279.54 159.65C276.34 163.75 272.19 166.75 267.09 168.65C261.99 170.55 256.64 171.5 251.04 171.5C247.94 171.5 244.59 171.15 240.99 170.45C237.49 169.85 234.09 168.85 230.79 167.45C227.49 166.05 224.64 164.25 222.24 162.05C222.24 157.35 222.44 153.05 222.84 149.15C223.24 145.25 223.64 141.45 224.04 137.75L226.29 138.2C226.29 145 227.44 150.65 229.74 155.15C232.04 159.55 235.09 162.8 238.89 164.9C242.69 167 246.79 168.05 251.19 168.05ZM415.349 116.45C415.349 126.65 413.299 135.95 409.199 144.35C405.099 152.65 399.149 159.25 391.349 164.15C383.649 169.05 374.299 171.5 363.299 171.5C355.099 171.5 347.699 170.1 341.099 167.3C334.599 164.4 328.999 160.45 324.299 155.45C319.699 150.45 316.149 144.6 313.649 137.9C311.249 131.2 310.049 124.05 310.049 116.45C310.049 106.25 312.099 97.2 316.199 89.3C320.399 81.3 326.349 75.05 334.049 70.55C341.849 65.95 351.199 63.65 362.099 63.65C373.099 63.65 382.549 65.95 390.449 70.55C398.449 75.05 404.599 81.3 408.899 89.3C413.199 97.2 415.349 106.25 415.349 116.45ZM402.299 117.5C402.299 107.8 400.749 99.15 397.649 91.55C394.649 83.95 390.149 78 384.149 73.7C378.249 69.3 370.899 67.1 362.099 67.1C353.399 67.1 346.149 69.3 340.349 73.7C334.549 78 330.199 83.95 327.299 91.55C324.499 99.15 323.099 107.8 323.099 117.5C323.099 127.2 324.599 135.9 327.599 143.6C330.699 151.2 335.249 157.2 341.249 161.6C347.249 165.9 354.599 168.05 363.299 168.05C372.099 168.05 379.349 165.9 385.049 161.6C390.849 157.2 395.149 151.2 397.949 143.6C400.849 135.9 402.299 127.2 402.299 117.5ZM537.368 168.2L537.668 170H516.818C514.118 170 511.618 168.8 509.318 166.4C507.018 163.9 504.768 160.7 502.568 156.8C500.468 152.8 498.218 148.6 495.818 144.2C493.518 139.8 490.918 135.65 488.018 131.75C485.218 127.75 481.968 124.45 478.268 121.85C474.668 119.15 470.418 117.7 465.518 117.5V136.1C465.518 143.4 465.668 149.2 465.968 153.5C466.268 157.8 466.918 161 467.918 163.1C468.918 165.2 470.368 166.6 472.268 167.3C474.268 167.9 476.968 168.2 480.368 168.2L480.668 170H440.468L440.768 168.2C444.168 168.2 446.818 167.9 448.718 167.3C450.718 166.6 452.168 165.2 453.068 163.1C453.968 161 454.518 157.8 454.718 153.5C455.018 149.2 455.168 143.4 455.168 136.1V98.15C455.168 90.85 455.018 85.1 454.718 80.9C454.518 76.7 453.968 73.6 453.068 71.6C452.168 69.6 450.718 68.3 448.718 67.7C446.818 67.1 444.168 66.8 440.768 66.8L440.468 65H475.268C479.568 65 483.918 65.35 488.318 66.05C492.718 66.65 496.768 67.85 500.468 69.65C504.268 71.45 507.318 74.05 509.618 77.45C511.918 80.75 513.068 85.1 513.068 90.5C513.068 95.6 511.818 100.1 509.318 104C506.818 107.8 503.568 110.9 499.568 113.3C495.568 115.6 491.268 117 486.668 117.5C490.568 119.8 493.918 122.65 496.718 126.05C499.518 129.35 502.018 132.9 504.218 136.7C506.418 140.5 508.568 144.25 510.668 147.95C512.768 151.65 515.018 155.05 517.418 158.15C519.818 161.15 522.618 163.6 525.818 165.5C529.018 167.3 532.868 168.2 537.368 168.2ZM465.518 68.45V114.5H474.968C479.668 114.5 484.018 113.7 488.018 112.1C492.018 110.5 495.218 108 497.618 104.6C500.118 101.1 501.368 96.5 501.368 90.8C501.368 83.3 499.068 77.7 494.468 74C489.968 70.3 483.568 68.45 475.268 68.45H465.518ZM544.477 65H630.877V86.6L629.077 86.3C629.077 79.8 625.977 75.15 619.777 72.35C613.577 69.45 604.677 68 593.077 68V136.1C593.077 143.4 593.227 149.2 593.527 153.5C593.827 157.8 594.527 161 595.627 163.1C596.727 165.2 598.477 166.6 600.877 167.3C603.277 167.9 606.527 168.2 610.627 168.2L610.927 170H564.727L565.027 168.2C569.227 168.2 572.477 167.9 574.777 167.3C577.177 166.6 578.927 165.2 580.027 163.1C581.127 161 581.827 157.8 582.127 153.5C582.427 149.2 582.577 143.4 582.577 136.1V68C571.077 68 562.127 69.45 555.727 72.35C549.427 75.15 546.277 79.8 546.277 86.3L544.477 86.6V65ZM755.743 116.45C755.743 126.65 753.693 135.95 749.593 144.35C745.493 152.65 739.543 159.25 731.743 164.15C724.043 169.05 714.693 171.5 703.693 171.5C695.493 171.5 688.093 170.1 681.493 167.3C674.993 164.4 669.393 160.45 664.693 155.45C660.093 150.45 656.543 144.6 654.043 137.9C651.643 131.2 650.443 124.05 650.443 116.45C650.443 106.25 652.493 97.2 656.593 89.3C660.793 81.3 666.743 75.05 674.443 70.55C682.243 65.95 691.593 63.65 702.493 63.65C713.493 63.65 722.943 65.95 730.843 70.55C738.843 75.05 744.993 81.3 749.293 89.3C753.593 97.2 755.743 106.25 755.743 116.45ZM742.693 117.5C742.693 107.8 741.143 99.15 738.043 91.55C735.043 83.95 730.543 78 724.543 73.7C718.643 69.3 711.293 67.1 702.493 67.1C693.793 67.1 686.543 69.3 680.743 73.7C674.943 78 670.593 83.95 667.693 91.55C664.893 99.15 663.493 107.8 663.493 117.5C663.493 127.2 664.993 135.9 667.993 143.6C671.093 151.2 675.643 157.2 681.643 161.6C687.643 165.9 694.993 168.05 703.693 168.05C712.493 168.05 719.743 165.9 725.443 161.6C731.243 157.2 735.543 151.2 738.343 143.6C741.243 135.9 742.693 127.2 742.693 117.5Z" fill="white"/>
<defs>
<clipPath id="clip0_30001_64">
<rect width="24" height="24" fill="white" transform="translate(305 12)"/>
</clipPath>
<clipPath id="clip1_30001_64">
<rect width="24" height="24" fill="white" transform="translate(339 5)"/>
</clipPath>
<clipPath id="clip2_30001_64">
<rect width="24" height="24" fill="white" transform="translate(373)"/>
</clipPath>
<clipPath id="clip3_30001_64">
<rect width="24" height="24" fill="white" transform="translate(407 5)"/>
</clipPath>
<clipPath id="clip4_30001_64">
<rect width="24" height="24" fill="white" transform="translate(441 12)"/>
</clipPath>
</defs>
</svg>
